HIERARCHY
ROOT ui
{
	 OFFSET 0 0 0
	 CHANNELS 3 XPosition YPosition Z Position
	 EndSite
	 {
	 OFFSET 0 -1 0
	 }
}
ROOT li
{
	 OFFSET 0 0 0
	 CHANNELS 3 XPosition YPosition Z Position
	 EndSite
	 {
	 OFFSET 0 -1 0
	 }
}
ROOT ul
{
	 OFFSET 0 0 0
	 CHANNELS 3 XPosition YPosition Z Position
	 EndSite
	 {
	 OFFSET 0 -1 0
	 }
}
ROOT ll
{
	 OFFSET 0 0 0
	 CHANNELS 3 XPosition YPosition Z Position
	 EndSite
	 {
	 OFFSET 0 -1 0
	 }
}
ROOT tt
{
	 OFFSET 0 0 0
	 CHANNELS 3 XPosition YPosition Z Position
	 EndSite
	 {
	 OFFSET 0 -1 0
	 }
}
ROOT tb
{
	 OFFSET 0 0 0
	 CHANNELS 3 XPosition YPosition Z Position
	 EndSite
	 {
	 OFFSET 0 -1 0
	 }
}
ROOT td
{
	 OFFSET 0 0 0
	 CHANNELS 3 XPosition YPosition Z Position
	 EndSite
	 {
	 OFFSET 0 -1 0
	 }
}
ROOT v
{
	 OFFSET 0 0 0
	 CHANNELS 3 XPosition YPosition Z Position
	 EndSite
	 {
	 OFFSET 0 -1 0
	 }
}
ROOT bn
{
	 OFFSET 0 0 0
	 CHANNELS 3 XPosition YPosition Z Position
	 EndSite
	 {
	 OFFSET 0 -1 0
	 }
}
MOTION
Frames: 21
Frame Time: 0.002
0.0025018138885498048	0.001047793984413147	0		0.426082275390625	-2.340793701171875	0		-0.996351318359375	0.026629077911376954	0		-0.8308363037109375	-2.172509033203125	0		1.5130694580078126	-0.5249156494140625	0		3.27290234375	-0.25250404357910156	0		4.46859033203125	-0.14907017517089843	0		5.53957421875	0.1455711212158203	0		-0.3731387939453125	5.82464892578125	0		
0.013372474670410157	0.01033002758026123	0		0.40485946655273436	-2.332315185546875	0		-0.988492919921875	0.03396858215332031	0		-0.77915380859375	-2.179467041015625	0		1.5388935546875	-0.5197892456054688	0		3.30151123046875	-0.2814625244140625	0		4.46839501953125	-0.14986874389648439	0		5.54432421875	0.13568647766113281	0		-0.35607037353515625	5.83090576171875	0		
0.0052244820594787595	0.010752290725708007	0		0.42064031982421873	-2.33006689453125	0		-0.9926734619140625	0.029400209426879882	0		-0.8362659301757812	-2.1616904296875	0		1.5326732177734375	-0.5274347534179687	0		3.285646240234375	-0.23710577392578125	0		4.4732861328125	-0.14368031311035157	0		5.548220703125	0.14183047485351563	0		-0.23593937683105468	5.84148828125	0		
-0.046939735412597654	0.0034891788959503173	0		0.41641738891601565	-2.334665283203125	0		-1.002784423828125	0.029888872146606446	0		-0.7675183715820313	-2.171735595703125	0		1.521617431640625	-0.5160234985351563	0		3.285291748046875	-0.2718253173828125	0		4.46218115234375	-0.14235482788085937	0		5.5391201171875	0.14309526062011718	0		-0.3729884338378906	5.82280224609375	0		
0.0019474819898605347	-0.001427351951599121	0		0.4162624816894531	-2.335266357421875	0		-0.9969021606445313	0.02429019355773926	0		-0.8416398315429687	-2.167803466796875	0		1.5294093017578125	-0.5327110595703125	0		3.302198486328125	-0.2726266784667969	0		4.4570498046875	-0.15003289794921876	0		5.53903955078125	0.14234062194824218	0		-0.4020392456054688	5.80142041015625	0		
0.0018979640007019043	-0.001990869998931885	0		0.39017898559570313	-2.331665283203125	0		-0.9969509887695313	0.02375303077697754	0		-0.8387330932617187	-2.166364990234375	0		1.5323726806640625	-0.5293352661132813	0		3.266311279296875	-0.24803480529785157	0		4.467986328125	-0.15277894592285157	0		5.53899365234375	0.14163101196289063	0		-0.4068275146484375	5.81690087890625	0		
0.012955069541931152	0.0073980469703674315	0		0.40208285522460935	-2.33729150390625	0		-0.9889067993164062	0.03118444061279297	0		-0.8268255004882813	-2.1719638671875	0		1.527391357421875	-0.5238717651367187	0		3.285125732421875	-0.2737716064453125	0		4.462037109375	-0.14436604309082032	0		5.538986328125	0.14097198486328125	0		-0.3716827087402344	5.82013671875	0		
0.009966938972473145	0.00391092300415039	0		0.42010858154296876	-2.332927978515625	0		-0.9929013061523437	0.02672121810913086	0		-0.8018107299804688	-2.169626953125	0		1.5323736572265625	-0.53043896484375	0		3.29430224609375	-0.2523965759277344	0		4.45702197265625	-0.15190940856933594	0		5.53902099609375	0.14037017822265624	0		-0.23740509033203125	5.84072509765625	0		
0.005069870948791504	0.007467241764068604	0		0.41814422607421875	-2.335396484375	0		-0.992825439453125	0.02625494956970215	0		-0.8387452392578125	-2.16784375	0		1.5494156494140625	-0.53504931640625	0		3.278280029296875	-0.2668021240234375	0		4.45709765625	-0.15243328857421876	0		5.53909814453125	0.13983012390136718	0		-0.2663988952636719	5.8204482421875	0		
0.002113213062286377	-0.003960047006607056	0		0.41623577880859375	-2.3378330078125	0		-1.0027001342773438	0.02688058280944824	0		-0.8066807250976562	-2.174504638671875	0		1.52953125	-0.5353697509765625	0		3.272458251953125	-0.2582276611328125	0		4.45721533203125	-0.15290406799316406	0		5.53921728515625	0.13935137939453124	0		-0.4052928466796875	5.8139482421875	0		
0.002271409034729004	-0.004379493236541748	0		0.4003660888671875	-2.342143798828125	0		-0.9925489501953125	0.025393527984619142	0		-0.82852978515625	-2.175774169921875	0		1.5527091064453125	-0.5329464721679688	0		3.295486328125	-0.2778046875	0		4.46835986328125	-0.15540016174316407	0		5.548361328125	0.13686825561523439	0		-0.37010568237304686	5.81729052734375	0		
0.013534014701843261	0.005153470993041992	0		0.4315897827148438	-2.3397451171875	0		-0.9883271484375	0.028970352172851564	0		-0.82429931640625	-2.172196533203125	0		1.5159407958984374	-0.5280807495117188	0		3.29888623046875	-0.248204833984375	0		4.4626162109375	-0.14673536682128907	0		5.5395693359375	0.1385592498779297	0		-0.355865966796875	5.82680126953125	0		
0.013760418891906738	0.004788198947906494	0		0.3949029235839844	-2.32985595703125	0		-0.9921279907226562	0.024624700546264647	0		-0.7990364990234375	-2.16973828125	0		1.553136474609375	-0.5336858520507812	0		3.261986328125	-0.2672931213378906	0		4.457794921875	-0.15403517150878906	0		5.539794921875	0.1382362060546875	0		-0.3717380676269531	5.81854248046875	0		
0.006963722229003906	-0.0025040540695190428	0		0.41913079833984374	-2.3373544921875	0		-0.9918775634765625	0.02427389907836914	0		-0.84077490234375	-2.171802001953125	0		1.5303731689453124	-0.5368529663085938	0		3.2732939453125	-0.25967266845703124	0		4.45399169921875	-0.16230342102050782	0		5.53499658203125	0.13099021911621095	0		-0.40069219970703124	5.7973955078125	0		
-0.04878957748413086	-0.005441168785095215	0		0.3914423828125	-2.3354755859375	0		-0.9956392211914062	0.01997113037109375	0		-0.766508544921875	-2.176630859375	0		1.5506456298828124	-0.5372841186523437	0		3.28644775390625	-0.27703237915039064	0		4.45425732421875	-0.16256422424316405	0		5.54030810546875	0.13771481323242188	0		-0.2653592834472656	5.81815869140625	0		
0.0034820599555969237	-0.006087615966796875	0		0.42868374633789064	-2.346013671875	0		-0.99133984375	0.023633861541748048	0		-0.8302200927734374	-2.1795048828125	0		1.5139615478515625	-0.5323040771484375	0		3.28488720703125	-0.25326171875	0		4.45858447265625	-0.15482075500488282	0		5.545517578125	0.12847467041015626	0		-0.4392626037597656	5.8060361328125	0		
0.009858477592468261	0.008598804473876953	0		0.3961022338867187	-2.331056884765625	0		-0.9870380249023437	0.027316490173339845	0		-0.797846435546875	-2.17100830078125	0		1.5342391357421874	-0.53368505859375	0		3.292951171875	-0.2855299072265625	0		4.45885986328125	-0.1550212860107422	0		5.5408515625	0.1373329315185547	0		-0.37101016235351564	5.817296875	0		
0.015099976539611816	0.0033138830661773684	0		0.4223876647949219	-2.3364755859375	0		-0.9907899780273437	0.023073102951049803	0		-0.8365289916992188	-2.171012939453125	0		1.5345245361328126	-0.5339075317382812	0		3.309392822265625	-0.26182711791992186	0		4.45508154296875	-0.16316789245605468	0		5.5411240234375	0.13718644714355469	0		-0.37084515380859373	5.81703857421875	0		
0.008324447631835938	-0.0038698809146881104	0		0.4206925659179688	-2.338684814453125	0		-1.0064785766601563	0.02892911148071289	0		-0.765255859375	-2.177736328125	0		1.5517794189453125	-0.5382216186523437	0		3.280616455078125	-0.2697972106933594	0		4.44842041015625	-0.15326979064941407	0		5.541392578125	0.13706675720214845	0		-0.2646865539550781	5.81708984375	0		
5.918430089950561E-4	-0.003028125047683716	0		0.41898858642578124	-2.340874267578125	0		-0.9942857666015625	0.018616336822509766	0		-0.8389215087890625	-2.17347021484375	0		1.532051513671875	-0.5382674560546875	0		3.27090283203125	-0.26687374877929687	0		4.45561376953125	-0.1634424591064453	0		5.54659033203125	0.1279375762939453	0		-0.4045846252441406	5.8118076171875	0		
0.004806117057800293	-0.007248057842254639	0		0.43225201416015624	-2.3451455078125	0		-0.9900187377929688	0.022375226974487305	0		-0.8286815185546875	-2.18074755859375	0		1.5323038330078125	-0.5384285278320312	0		3.294022216796875	-0.28615081787109375	0		4.459908203125	-0.15557601928710937	0		5.546828125	0.12786124420166015	0		-0.3674538879394531	5.81335888671875	0		
